<svg xmlns="http://www.w3.org/2000/svg" viewBox="0 0 100 100">
  <defs>
    <linearGradient id="grad" x1="0%" y1="0%" x2="100%" y2="100%">
      <stop offset="0%" style="stop-color:#06d6a0"/>
      <stop offset="100%" style="stop-color:#059669"/>
    </linearGradient>
  </defs>
  <circle cx="50" cy="50" r="45" fill="url(#grad)"/>
  <path d="M50 20 C35 20 25 35 25 50 C25 65 35 80 50 80 C65 80 75 65 75 50 C75 35 65 20 50 20 Z M50 30 C60 30 65 40 65 50 C65 60 60 70 50 70 C40 70 35 60 35 50 C35 40 40 30 50 30 Z" fill="#fff" opacity="0.9"/>
  <circle cx="40" cy="45" r="4" fill="#059669"/>
  <circle cx="60" cy="45" r="4" fill="#059669"/>
  <path d="M42 58 Q50 65 58 58" stroke="#059669" stroke-width="2.5" fill="none" stroke-linecap="round"/>
</svg>
